<svg xmlns="http://www.w3.org/2000/svg" viewBox="0 0 100 100">
    <defs>
        <linearGradient id="grad1" x1="0%" y1="0%" x2="100%" y2="100%">
            <stop offset="0%" stop-color="#a78bfa" />
            <stop offset="100%" stop-color="#7c3aed" />
        </linearGradient>
    </defs>
    <rect width="100" height="100" rx="24" fill="#07070a" />
    <path d="M50 25 C30 25 25 40 25 60 L25 65 A10 10 0 0 0 35 75 L35 75 A5 5 0 0 0 40 70 L40 50 A5 5 0 0 0 35 45 L35 45 C35 38 42 35 50 35 C58 35 65 38 65 45 L65 45 A5 5 0 0 0 60 50 L60 70 A5 5 0 0 0 65 75 L65 75 A10 10 0 0 0 75 65 L75 60 C75 40 70 25 50 25 Z" fill="url(#grad1)" />
    <!-- Sound wave elements -->
    <rect x="42" y="45" width="4" height="15" rx="2" fill="url(#grad1)" />
    <rect x="54" y="45" width="4" height="15" rx="2" fill="url(#grad1)" />
    <rect x="48" y="40" width="4" height="25" rx="2" fill="url(#grad1)" />
    <circle cx="50" cy="52" r="1.5" fill="#fff" opacity="0.5"/>
</svg>
